<?xml version="1.0" standalone="no"?>
<!DOCTYPE svg PUBLIC "-//W3C//DTD SVG 20010904//EN"
 "http://www.w3.org/TR/2001/REC-SVG-20010904/DTD/svg10.dtd">
<svg version="1.0" xmlns="http://www.w3.org/2000/svg"
 width="1054.000000pt" height="685.000000pt" viewBox="0 0 1054.000000 685.000000"
 preserveAspectRatio="xMidYMid meet">
<metadata>
Created by potrace 1.16, written by Peter Selinger 2001-2019
</metadata>
<g transform="translate(0.000000,685.000000) scale(0.100000,-0.100000)"
fill="#000000" stroke="none">
<path d="M5185 6843 c-97 -9 -272 -46 -371 -78 -363 -119 -683 -362 -891 -678
-322 -489 -371 -1119 -127 -1645 319 -688 1051 -1083 1799 -971 592 89 1099
492 1324 1054 80 202 115 387 115 620 0 300 -60 548 -191 795 -44 81 -137 223
-186 283 l-24 28 -42 -55 -41 -56 53 -72 c186 -254 282 -535 294 -855 11 -296
-40 -527 -173 -783 -219 -421 -599 -708 -1077 -812 -87 -19 -132 -22 -307 -22
-221 0 -323 14 -490 70 -235 79 -412 188 -599 368 -258 250 -414 562 -462 921
-17 128 -7 384 20 508 118 553 499 984 1028 1166 184 63 265 75 503 75 201 0
223 -1 335 -28 65 -15 151 -39 190 -53 131 -47 310 -144 413 -224 24 -18 24
-18 79 23 l54 41 -23 23 c-80 77 -328 213 -499 272 -207 73 -480 106 -704 85z"/>
<path d="M6765 6621 c-28 -27 -97 -94 -155 -147 -58 -54 -104 -102 -102 -107
1 -5 -2 -6 -7 -3 -5 4 -11 3 -13 -2 -1 -4 -25 -25 -51 -46 -29 -24 -46 -45
-43 -53 4 -8 1 -11 -5 -7 -14 8 -90 -66 -82 -79 3 -6 1 -7 -4 -4 -12 7 -55
-26 -48 -37 3 -3 2 -4 -1 -1 -10 7 -179 -156 -176 -169 2 -6 0 -8 -4 -4 -4 4
-28 -11 -53 -34 -171 -155 -270 -252 -265 -259 3 -5 -1 -6 -9 -4 -16 7 -52
-30 -43 -44 4 -5 1 -13 -5 -17 -8 -4 -9 -3 -5 4 16 26 -12 9 -64 -39 -249
-232 -233 -209 -168 -244 15 -8 35 -28 45 -45 9 -16 21 -30 25 -30 4 0 8 -9 8
-20 0 -11 5 -20 11 -20 5 0 7 -6 4 -12 -4 -7 7 3 23 22 17 19 28 39 25 44 -4
5 -1 6 5 2 5 -3 25 13 44 36 39 51 69 86 123 148 121 136 156 181 149 191 -4
8 -3 9 4 5 12 -7 159 160 154 176 -1 5 2 7 7 4 5 -3 24 13 43 36 39 51 69 86
123 148 121 136 156 181 149 191 -4 7 -3 9 3 6 14 -9 86 71 77 85 -4 6 -3 8 4
4 12 -7 79 70 74 86 -1 5 2 7 7 4 5 -3 24 13 42 36 19 24 36 45 39 48 3 3 30
34 60 70 30 36 62 72 70 80 21 21 43 50 39 50 -3 0 -27 -22 -54 -49z"/>
<path d="M4577 5689 c54 -56 104 -108 111 -115 8 -8 18 -11 24 -8 7 4 8 2 4
-5 -9 -15 133 -163 147 -154 6 3 7 1 4 -4 -6 -9 23 -43 158 -184 l40 -42 9 34
c6 18 31 55 56 81 l45 47 -137 91 c-75 51 -142 89 -148 85 -6 -4 -9 -2 -8 4 3
8 -147 115 -163 116 -3 0 -14 8 -24 18 -9 10 -24 16 -31 13 -8 -3 -13 0 -11 6
1 6 -4 13 -12 16 -9 3 -11 0 -6 -8 5 -9 4 -11 -4 -6 -6 4 -9 11 -6 15 2 5 -13
20 -35 35 -22 14 -40 24 -40 22 0 -3 -12 6 -26 19 -15 14 -31 25 -36 25 -5 0
35 -46 89 -101z"/>
<path d="M5264 5220 c-54 -27 -70 -59 -66 -127 3 -30 55 -79 93 -87 44 -9 94
19 122 67 20 35 20 39 6 79 -27 74 -89 101 -155 68z"/>
<path d="M3113 2321 c-57 -15 -98 -45 -95 -72 1 -17 0 -20 -7 -10 -7 11 -12 9
-22 -10 -11 -19 -15 -114 -17 -449 -4 -464 0 -509 46 -553 93 -90 272 -72 331
33 21 38 24 59 29 182 l5 140 -44 -4 -44 -4 -2 -124 c0 -69 -2 -134 -2 -145
-2 -33 -60 -65 -119 -65 -62 0 -96 19 -111 62 -15 42 -15 819 0 871 19 70 76
99 154 77 60 -17 69 -39 75 -200 l5 -135 40 0 40 0 0 195 0 195 -29 3 c-32 4
-46 -10 -46 -46 0 -21 -2 -22 -15 -8 -8 8 -15 19 -15 25 0 28 -102 55 -157 42z"/>
<path d="M0 2275 c0 -23 5 -35 13 -34 6 1 24 1 40 0 l27 -1 0 -495 0 -495 -40
0 c-39 0 -40 -1 -40 -35 l0 -35 120 0 120 0 0 34 c0 33 -2 35 -37 38 l-38 3
-3 493 -2 492 99 0 c70 0 101 4 104 13 3 6 6 -209 6 -480 1 -348 4 -494 12
-499 17 -10 -10 -24 -49 -24 -31 0 -33 -2 -30 -32 l3 -33 110 0 110 0 3 33 c2
18 0 32 -5 31 -4 -1 -20 -1 -35 0 l-28 1 0 498 0 498 35 -4 c34 -4 35 -3 35
32 l0 36 -265 0 -265 0 0 -35z"/>
<path d="M1052 2278 c3 -31 5 -33 41 -33 l37 0 0 -497 0 -498 -41 0 c-39 0
-40 -1 -37 -32 l3 -33 195 -3 c107 -2 205 0 218 3 22 5 22 6 22 201 l0 195
-42 -3 -43 -3 -3 -163 -2 -163 -96 3 -96 3 2 225 c0 123 3 226 5 228 2 3 37 5
77 6 l73 1 0 30 0 30 -70 2 c-38 1 -74 2 -80 2 -6 1 -10 85 -10 230 l0 230 97
3 98 3 2 -165 3 -165 28 -3 c20 -3 27 1 28 15 0 16 1 16 9 -2 16 -40 20 9 18
195 l-3 185 -218 3 -218 2 3 -32z"/>
<path d="M2022 2278 c3 -29 6 -33 33 -34 17 0 35 -3 40 -6 6 -4 9 -193 7 -497
l-2 -491 -40 0 c-39 0 -40 -1 -40 -35 l0 -35 133 0 c141 0 157 5 157 48 0 20
-4 23 -32 22 -18 -1 -47 -2 -65 -1 l-32 1 -3 245 -3 245 88 0 c59 0 98 5 117
15 47 25 81 77 89 142 12 88 13 210 2 217 -6 4 -8 13 -4 22 9 23 -16 98 -43
129 -13 15 -24 24 -24 19 0 -5 -5 -2 -10 6 -7 12 -43 16 -190 18 l-181 4 3
-34z m342 -60 c7 -10 15 -16 17 -13 14 13 11 -334 -3 -358 -7 -12 -11 -25 -11
-28 1 -4 -40 -7 -92 -8 l-95 -2 0 214 c0 117 2 216 4 218 2 2 41 2 86 -1 62
-4 85 -9 94 -22z"/>
<path d="M3894 2296 c-13 -33 0 -51 36 -52 l35 0 3 -497 2 -497 -40 0 c-39 0
-40 -1 -37 -32 l3 -33 114 0 115 0 3 32 c3 31 2 32 -38 35 l-41 3 -2 492 -2
492 108 3 107 3 0 -497 0 -497 -37 -3 c-35 -3 -38 -6 -38 -33 l0 -30 118 -3
117 -3 0 36 c0 34 -1 35 -40 35 l-40 0 -2 493 c-2 270 -2 494 -1 496 2 2 20 4
40 5 35 1 38 3 41 34 l3 32 -261 0 c-218 0 -262 -2 -266 -14z"/>
<path d="M4944 2296 c-13 -33 0 -51 36 -52 l35 0 3 -497 2 -497 -40 0 c-40 0
-41 -1 -37 -32 l3 -33 212 -3 c188 -2 213 -1 219 14 3 9 0 20 -8 25 -9 5 -10
9 -2 9 8 0 12 49 13 176 l1 176 -43 -4 -43 -4 -1 -159 -2 -160 -96 -3 -96 -3
2 232 3 232 75 1 75 1 0 30 0 30 -73 1 c-40 1 -75 4 -78 6 -6 7 -6 449 0 455
9 10 186 8 186 -2 1 -5 2 -80 3 -165 l2 -155 40 0 40 0 0 195 0 195 -213 3
c-179 2 -213 0 -218 -12z"/>
<path d="M5884 2296 c-13 -33 0 -51 36 -52 l35 0 3 -497 2 -497 -41 0 c-39 0
-40 -1 -37 -32 l3 -33 115 0 115 0 3 33 c3 31 2 32 -37 32 l-40 0 -3 213 c-3
228 -1 260 20 265 8 1 11 -2 8 -7 -8 -13 25 -82 36 -75 4 3 5 -3 1 -12 -5 -13
-3 -15 7 -9 9 5 11 4 6 -3 -4 -6 32 -90 79 -186 47 -97 85 -178 85 -181 0 -3
-16 -5 -35 -5 -33 0 -35 -2 -32 -32 l3 -33 119 0 120 0 0 30 c0 28 -3 30 -42
33 l-43 3 -101 204 c-56 113 -105 202 -110 199 -5 -3 -6 3 -2 12 5 13 3 15 -7
9 -8 -5 -11 -4 -6 3 3 6 1 22 -5 36 -9 20 -9 32 2 58 8 18 14 35 14 38 1 3 9
20 18 37 10 18 18 35 18 38 0 2 11 29 25 60 14 30 22 60 18 66 -4 7 -3 9 3 6
13 -8 26 20 16 35 -3 7 -1 8 5 4 12 -7 17 10 14 49 -2 14 0 16 6 7 6 -8 18 11
37 58 15 38 33 70 39 71 6 1 26 1 44 1 30 1 32 3 32 34 l0 34 -120 0 -120 0 0
-35 c0 -31 3 -35 26 -35 17 0 23 4 18 13 -4 6 1 5 10 -4 16 -14 14 -21 -20
-100 -20 -46 -37 -88 -38 -94 -2 -5 -14 -35 -27 -65 -14 -30 -43 -99 -65 -152
-21 -54 -43 -96 -48 -95 -8 3 -9 487 0 496 2 3 19 5 37 5 29 1 32 4 32 31 l0
30 -113 3 c-92 2 -113 0 -118 -12z"/>
<path d="M6894 2297 c-2 -7 -3 -96 -2 -197 l3 -185 40 0 40 0 2 163 2 163 86
1 86 1 -1 -486 c0 -389 2 -487 12 -487 9 0 8 -3 -2 -10 -8 -5 -39 -10 -67 -10
l-53 0 0 -35 0 -35 134 0 c74 0 141 3 150 6 10 4 16 18 16 35 0 28 -1 29 -55
29 l-55 0 2 496 3 496 85 0 85 0 5 -164 5 -163 38 -3 37 -3 0 200 0 201 -295
0 c-231 0 -297 -3 -301 -13z"/>
<path d="M8000 2274 c0 -35 1 -35 35 -32 l36 3 0 -495 -1 -495 -35 -3 c-33 -3
-35 -6 -35 -38 l0 -34 78 0 78 0 28 108 c16 59 62 224 103 367 40 143 83 295
94 337 12 43 24 76 28 74 3 -2 3 -44 -1 -93 -3 -48 -7 -231 -7 -405 l-1 -318
-40 0 c-39 0 -40 -1 -40 -35 l0 -35 120 0 120 0 0 35 c0 34 -1 35 -40 35 l-40
0 0 493 c0 300 4 498 10 507 7 11 10 11 10 2 0 -9 10 -12 28 -10 22 2 28 8 30
36 l3 32 -79 0 -80 0 -21 -69 c-12 -38 -18 -77 -14 -87 4 -10 2 -15 -4 -11 -5
3 -15 -17 -22 -46 -7 -29 -22 -81 -32 -116 -11 -35 -17 -74 -14 -85 5 -17 4
-18 -4 -6 -9 13 -11 13 -11 -1 0 -8 -27 -109 -59 -224 -33 -115 -58 -212 -56
-216 3 -4 -1 -12 -8 -17 -10 -9 -12 12 -10 110 2 67 5 124 8 126 3 3 5 133 5
289 0 219 3 283 13 284 6 1 22 0 35 -1 19 -1 22 3 22 34 l0 36 -115 0 -115 0
0 -36z"/>
<path d="M9084 2296 c-12 -30 1 -51 31 -53 17 0 35 -2 40 -2 7 -1 9 -171 7
-496 l-2 -495 -41 0 c-39 0 -40 -1 -37 -32 l3 -33 166 0 c200 0 225 8 265 92
25 50 26 57 22 220 -3 149 -5 173 -24 208 -12 22 -27 39 -34 37 -6 -1 -9 2 -6
7 7 11 -20 35 -33 27 -5 -3 -11 1 -15 9 -3 10 1 15 12 15 23 0 86 65 78 79 -4
6 -2 11 4 11 9 0 11 43 8 153 -3 149 -4 155 -31 196 -42 63 -70 71 -252 71
-126 0 -157 -3 -161 -14z m314 -62 c39 -8 52 -58 52 -197 0 -68 -5 -138 -11
-155 -16 -48 -61 -68 -137 -62 l-63 5 -2 207 c-2 170 1 208 12 210 18 4 120
-1 149 -8z m-8 -487 c14 -7 34 -30 46 -52 19 -35 21 -59 23 -207 l2 -166 -30
-34 c-28 -31 -33 -33 -110 -36 l-80 -4 -3 252 c-2 138 -1 254 1 256 10 10 128
3 151 -9z"/>
<path d="M10196 2288 c-4 -19 -19 -129 -40 -298 -3 -19 -18 -137 -36 -261 -17
-125 -30 -231 -29 -235 1 -5 -1 -16 -4 -24 -4 -8 -12 -60 -19 -115 l-13 -100
-37 -3 c-36 -3 -38 -5 -38 -38 l0 -35 113 3 112 3 3 30 c3 28 0 31 -29 33 -41
3 -52 10 -44 31 6 15 45 289 45 316 0 10 21 14 75 17 l75 3 5 -30 c21 -127 27
-167 30 -220 3 -33 7 -72 11 -87 5 -27 4 -28 -36 -28 -41 0 -41 0 -37 -32 l3
-33 117 -3 117 -3 0 35 c0 34 -1 35 -41 38 -41 3 -42 4 -46 43 -2 22 -22 171
-43 330 -22 160 -42 313 -46 340 -3 28 -8 57 -11 65 -3 8 -7 35 -9 60 -2 25
-9 84 -15 133 l-12 87 -58 0 c-53 0 -59 -2 -63 -22z m78 -163 c13 -154 48
-420 57 -429 18 -20 7 -24 -66 -28 -51 -2 -75 1 -75 8 0 6 11 99 24 205 13
107 28 232 31 279 9 98 19 86 29 -35z"/>
<path d="M7475 694 c-79 -27 -111 -81 -149 -254 -40 -178 -43 -213 -17 -239
57 -57 167 5 216 122 19 45 20 127 1 152 -20 27 -68 23 -110 -9 -20 -15 -36
-24 -36 -20 0 24 44 185 54 200 12 16 20 17 95 6 84 -12 104 -9 134 16 26 23
21 31 -16 25 -17 -2 -55 -1 -84 5 -37 6 -62 5 -88 -4z m-5 -249 c38 -46 -14
-219 -72 -239 -45 -16 -61 7 -55 74 6 65 35 129 73 159 32 25 38 26 54 6z"/>
<path d="M8964 701 c3 -5 19 -11 34 -14 36 -7 88 -50 107 -87 8 -16 18 -54 21
-87 7 -55 6 -57 -10 -40 -38 37 -108 12 -155 -56 -77 -113 -57 -237 39 -237
81 0 154 88 173 209 21 136 -21 250 -107 290 -46 21 -110 35 -102 22z m143
-268 c27 -66 2 -182 -48 -216 -61 -44 -106 49 -75 155 29 101 93 132 123 61z"/>
<path d="M2207 503 c-4 -6 -29 -13 -56 -15 -65 -6 -116 -40 -157 -103 -45 -71
-60 -134 -42 -172 20 -42 55 -42 112 2 l47 36 -7 -36 c-6 -31 -4 -35 15 -35
29 0 71 22 100 54 26 28 18 35 -13 11 -11 -8 -26 -15 -34 -15 -18 0 -10 60 24
178 23 78 28 123 11 95z m-57 -69 c0 -9 -9 -47 -20 -83 -24 -79 -60 -124 -98
-119 -23 3 -28 9 -30 38 -8 84 53 180 114 180 25 0 34 -4 34 -16z"/>
<path d="M8065 501 c-3 -6 -22 -11 -41 -11 -81 0 -168 -71 -204 -168 -24 -64
-25 -90 -4 -120 22 -31 55 -27 108 12 l45 35 -6 -35 c-5 -31 -3 -34 19 -34 24
0 98 46 113 69 9 15 -7 13 -29 -4 -54 -41 -57 -13 -16 144 28 105 32 139 15
112z m-55 -64 c0 -7 -8 -43 -19 -80 -22 -81 -62 -130 -101 -125 -21 3 -25 9
-28 42 -4 47 20 114 53 150 26 28 95 38 95 13z"/>
<path d="M1454 483 c-49 -28 -78 -52 -72 -59 4 -3 18 2 32 12 15 9 30 14 33
10 4 -3 1 -35 -6 -71 -7 -36 -11 -72 -7 -80 9 -23 57 -18 99 11 21 14 41 24
43 21 3 -3 0 -32 -7 -66 -19 -92 14 -107 91 -42 40 34 37 52 -4 20 -46 -36
-50 -13 -16 112 17 63 33 120 35 127 3 9 -3 12 -21 10 -21 -2 -29 -12 -44 -58
-21 -61 -69 -110 -108 -110 -20 0 -23 4 -18 23 28 108 31 157 9 157 -5 0 -22
-8 -39 -17z"/>
<path d="M2645 493 c-69 -17 -145 -136 -145 -228 0 -59 19 -85 64 -85 28 0
120 42 131 60 13 21 -3 21 -36 1 -74 -45 -116 -17 -106 71 13 108 62 167 115
139 33 -18 62 -14 62 9 0 31 -35 45 -85 33z"/>
<path d="M3113 489 c-68 -20 -124 -105 -131 -201 -4 -50 -2 -59 21 -82 81 -81
237 38 237 180 0 84 -51 126 -127 103z m51 -41 c20 -28 21 -126 2 -172 -7 -18
-25 -42 -40 -53 -51 -41 -86 -4 -86 90 1 114 79 199 124 135z"/>
<path d="M3635 486 c-67 -29 -126 -132 -128 -223 -1 -63 15 -83 68 -83 70 0
165 77 165 134 0 27 -18 46 -43 46 -17 0 -16 3 7 31 31 37 34 84 7 99 -25 13
-39 12 -76 -4z"/>
<path d="M4146 490 c-73 -22 -130 -113 -130 -208 -1 -56 2 -65 24 -82 87 -67
233 51 233 188 0 50 -3 59 -32 84 -33 29 -47 32 -95 18z m50 -44 c39 -60 7
-208 -50 -234 -80 -36 -106 151 -31 232 30 33 60 33 81 2z"/>
<path d="M4632 491 c-24 -7 -96 -60 -89 -67 2 -3 18 3 35 13 17 10 33 15 37
12 3 -4 -7 -57 -23 -119 -16 -62 -27 -121 -25 -131 8 -31 56 -23 107 16 26 19
47 35 49 35 1 0 2 -15 2 -32 0 -47 37 -50 88 -8 42 35 52 63 11 31 -38 -30
-56 -28 -48 7 10 43 51 198 59 222 6 19 4 21 -21 18 -25 -3 -29 -9 -51 -93
-18 -68 -31 -98 -56 -123 -40 -42 -59 -53 -76 -43 -10 7 -8 29 13 111 36 144
35 163 -12 151z"/>
<path d="M5665 493 c-23 -6 -98 -63 -92 -70 3 -2 20 6 40 17 22 13 38 17 42
11 7 -13 -49 -151 -77 -186 -15 -20 -28 -25 -63 -25 -30 0 -45 -5 -49 -16 -8
-21 11 -44 36 -44 46 0 79 34 122 123 l43 88 10 -96 c6 -53 15 -101 21 -107 6
-6 21 -8 34 -5 31 8 109 76 87 77 -9 0 -24 -9 -34 -20 -22 -25 -42 -26 -49 -2
-3 9 -10 68 -16 131 -6 63 -13 118 -16 122 -5 10 -8 10 -39 2z"/>
<path d="M6192 489 c-52 -15 -109 -79 -128 -144 -28 -97 2 -165 72 -165 91 0
184 107 184 213 0 40 -27 86 -56 97 -29 11 -28 11 -72 -1z m57 -69 c24 -75
-10 -190 -62 -209 -31 -12 -53 3 -67 45 -29 86 27 219 90 212 20 -2 28 -12 39
-48z"/>
<path d="M6714 483 c-48 -28 -78 -52 -72 -58 3 -3 22 4 42 16 l36 21 0 -24 c0
-34 -67 -180 -87 -192 -10 -5 -33 -10 -53 -10 -30 -1 -35 -4 -35 -26 0 -21 5
-26 33 -28 27 -3 39 3 67 33 19 19 44 62 56 95 12 33 25 60 29 60 4 0 11 -35
14 -77 9 -94 14 -113 29 -113 7 0 43 50 81 111 37 61 70 109 72 107 2 -2 -6
-37 -16 -78 -11 -41 -20 -90 -20 -107 0 -28 4 -33 23 -33 33 0 118 62 104 77
-4 3 -17 -3 -30 -15 -55 -52 -57 -25 -11 140 29 106 29 108 2 108 -25 0 -31
-8 -122 -154 -31 -50 -56 -88 -57 -85 0 2 -6 54 -14 116 -17 145 -18 146 -71
116z"/>
<path d="M8425 486 c-35 -16 -81 -63 -72 -73 4 -3 17 3 30 15 24 23 47 29 47
13 0 -13 -78 -339 -91 -379 -7 -21 -19 -34 -35 -38 -51 -13 -20 -23 66 -23 50
1 90 5 90 10 0 5 -8 9 -18 9 -10 0 -26 6 -37 13 -17 13 -17 17 -1 84 l17 70
48 -5 c45 -4 52 -1 89 33 57 50 93 128 95 200 1 46 -3 60 -18 72 -27 19 -61 9
-113 -34 l-43 -35 3 38 c3 44 -10 51 -57 30z m169 -106 c-1 -107 -59 -191
-119 -176 -35 9 -40 27 -25 99 11 51 21 70 56 105 31 31 50 43 66 40 21 -3 23
-7 22 -68z"/>
<path d="M0 375 c0 -13 62 -15 495 -15 433 0 495 2 495 15 0 13 -62 15 -495
15 -433 0 -495 -2 -495 -15z"/>
<path d="M9550 375 c0 -13 62 -15 495 -15 433 0 495 2 495 15 0 13 -62 15
-495 15 -433 0 -495 -2 -495 -15z"/>
</g>
</svg>
